# xmcd
#
# Track frame offsets: 
#        150
#        11228
#        27336
#        36945
#        50881
#        60241
#        67156
#        78982
#        91011
#        102388
#        115395
#        123718
#        141735
#        157779
#
# Disc length: 2255 seconds
#
# Revision: 0
# Processed by: cddbd v1.5.2PL0 Copyright (c) Steve Scherf et al.
# Submitted via: ExactAudioCopyFreeDBPlugin 1.0
#
DISCID=c608cd0e
DTITLE=Dave Arcari and The Hellsinki Hellraisers - Whisky In My Blood
DYEAR=2013
DGENRE=Blues
TTITLE0=Whisky In My Blood
TTITLE1=Cherry Wine
TTITLE2=Tell Me, Baby
TTITLE3=Travelling Riverside Blues
TTITLE4=Rough Justice
TTITLE5=Day Job
TTITLE6=Still Friends
TTITLE7=Wherever I Go
TTITLE8=See Me Laughing
TTITLE9=Jitterbug Swing
TTITLE10=Third Time Lucky
TTITLE11=Heat is Rising
TTITLE12=Preachin’ Blues
TTITLE13=Get Outta My
EXTD=
EXTT0=
EXTT1=
EXTT2=
EXTT3=
EXTT4=
EXTT5=
EXTT6=
EXTT7=
EXTT8=
EXTT9=
EXTT10=
EXTT11=
EXTT12=
EXTT13=
PLAYORDER=
